<mxfile host="app.diagrams.net" modified="2024-05-03T16:11:58.685Z" agent="Mozilla/5.0 (Macintosh; Intel Mac OS X 10_15_7) AppleWebKit/537.36 (KHTML, like Gecko) Chrome/121.0.0.0 Safari/537.36 OPR/107.0.0.0" etag="yrl86yQEgK3uSX44bbfm" version="24.3.1" type="github">
  <diagram name="Page-1" id="9f46799a-70d6-7492-0946-bef42562c5a5">
    <mxGraphModel dx="1432" dy="808" grid="1" gridSize="10" guides="1" tooltips="1" connect="1" arrows="1" fold="1" page="1" pageScale="1" pageWidth="4681" pageHeight="3300" background="none" math="0" shadow="0">
      <root>
        <mxCell id="0" />
        <mxCell id="1" parent="0" />
        <mxCell id="XttEBBF5GfbhOJpdxESC-3" value="" style="group" vertex="1" connectable="0" parent="1">
          <mxGeometry x="100" y="50" width="240" height="180" as="geometry" />
        </mxCell>
        <mxCell id="XttEBBF5GfbhOJpdxESC-1" value="" style="rounded=0;whiteSpace=wrap;html=1;" vertex="1" parent="XttEBBF5GfbhOJpdxESC-3">
          <mxGeometry width="240" height="180" as="geometry" />
        </mxCell>
        <mxCell id="XttEBBF5GfbhOJpdxESC-2" value="" style="rounded=0;whiteSpace=wrap;html=1;" vertex="1" parent="XttEBBF5GfbhOJpdxESC-3">
          <mxGeometry width="240" height="30" as="geometry" />
        </mxCell>
        <mxCell id="XttEBBF5GfbhOJpdxESC-7" value="Tournament List" style="text;html=1;align=left;verticalAlign=middle;whiteSpace=wrap;rounded=0;" vertex="1" parent="XttEBBF5GfbhOJpdxESC-3">
          <mxGeometry x="10.666666666666666" y="7.5" width="218.66666666666666" height="15" as="geometry" />
        </mxCell>
        <mxCell id="XttEBBF5GfbhOJpdxESC-21" value="" style="group" vertex="1" connectable="0" parent="1">
          <mxGeometry x="140" y="480" width="240" height="180" as="geometry" />
        </mxCell>
        <mxCell id="XttEBBF5GfbhOJpdxESC-22" value="" style="rounded=0;whiteSpace=wrap;html=1;" vertex="1" parent="XttEBBF5GfbhOJpdxESC-21">
          <mxGeometry width="240" height="180" as="geometry" />
        </mxCell>
        <mxCell id="XttEBBF5GfbhOJpdxESC-23" value="" style="rounded=0;whiteSpace=wrap;html=1;" vertex="1" parent="XttEBBF5GfbhOJpdxESC-21">
          <mxGeometry width="240" height="30" as="geometry" />
        </mxCell>
        <mxCell id="XttEBBF5GfbhOJpdxESC-24" value="Scores" style="text;html=1;align=left;verticalAlign=middle;whiteSpace=wrap;rounded=0;" vertex="1" parent="XttEBBF5GfbhOJpdxESC-21">
          <mxGeometry x="10.666666666666666" y="7.5" width="218.66666666666666" height="15" as="geometry" />
        </mxCell>
        <mxCell id="XttEBBF5GfbhOJpdxESC-25" value="" style="group" vertex="1" connectable="0" parent="1">
          <mxGeometry x="400" y="260" width="240" height="180" as="geometry" />
        </mxCell>
        <mxCell id="XttEBBF5GfbhOJpdxESC-26" value="" style="rounded=0;whiteSpace=wrap;html=1;" vertex="1" parent="XttEBBF5GfbhOJpdxESC-25">
          <mxGeometry width="240" height="180" as="geometry" />
        </mxCell>
        <mxCell id="XttEBBF5GfbhOJpdxESC-27" value="" style="rounded=0;whiteSpace=wrap;html=1;" vertex="1" parent="XttEBBF5GfbhOJpdxESC-25">
          <mxGeometry width="240" height="30" as="geometry" />
        </mxCell>
        <mxCell id="XttEBBF5GfbhOJpdxESC-28" value="Rankings" style="text;html=1;align=left;verticalAlign=middle;whiteSpace=wrap;rounded=0;" vertex="1" parent="XttEBBF5GfbhOJpdxESC-25">
          <mxGeometry x="10.666666666666666" y="7.5" width="218.66666666666666" height="15" as="geometry" />
        </mxCell>
        <mxCell id="XttEBBF5GfbhOJpdxESC-29" value="" style="group" vertex="1" connectable="0" parent="1">
          <mxGeometry x="400" y="480" width="240" height="180" as="geometry" />
        </mxCell>
        <mxCell id="XttEBBF5GfbhOJpdxESC-30" value="" style="rounded=0;whiteSpace=wrap;html=1;" vertex="1" parent="XttEBBF5GfbhOJpdxESC-29">
          <mxGeometry width="240" height="180" as="geometry" />
        </mxCell>
        <mxCell id="XttEBBF5GfbhOJpdxESC-31" value="" style="rounded=0;whiteSpace=wrap;html=1;" vertex="1" parent="XttEBBF5GfbhOJpdxESC-29">
          <mxGeometry width="240" height="30" as="geometry" />
        </mxCell>
        <mxCell id="XttEBBF5GfbhOJpdxESC-32" value="Players Overview" style="text;html=1;align=left;verticalAlign=middle;whiteSpace=wrap;rounded=0;" vertex="1" parent="XttEBBF5GfbhOJpdxESC-29">
          <mxGeometry x="10.666666666666666" y="7.5" width="218.66666666666666" height="15" as="geometry" />
        </mxCell>
      </root>
    </mxGraphModel>
  </diagram>
</mxfile>
